<svg height="28" viewBox="0 0 42 28" width="42" xmlns="http://www.w3.org/2000/svg" xmlns:xlink="http://www.w3.org/1999/xlink"><mask id="a" fill="#fff"><path d="m32.96477 2.66232h-2.04439c-.19167 0-.35139 0-.44721.09583-.12778.06389-.15972.19166-.15972.35138-.0080606.16265257.0983266.30893446.25555.35138.1350585.0392536.2746583.06073127.41527.06389h.60692c.4582472-.03086104.9121624.10531174 1.27775.38332.039459.0364015.0719355.07970578.09583.12778zm0 3.09854c-.3754315.44878705-.9524179.67717704-1.5333.60693h-2.17217v-1.0222h2.17217c.1603868.02191662.3226136-.02443595.44721-.12778.0856263-.08376371.1320085-.19972095.12777-.31943-.0023984-.11846022-.0478129-.23200184-.12777-.31944-.1137266-.07330082-.2484785-.10698881-.38332-.09583-1.05414-.03195-2.36383.03194-2.36383-1.46941-.0010464-.407567.1738423-.7957593.4798092-1.06501049s.7132444-.39336562 1.1173708-.34050951h2.23606v-.92636h-2.07634c-.4970632-.02234237-.9886227.11171804-1.40552.38332v-.38332h-3.06659c-.4767573-.01951036-.9471424.11488437-1.34163.38332v-.38332h-5.49431v.38332c-.4565188-.26133628-.9754262-.39382211-1.50135-.38332h-3.64157v.38332c-.4797717-.29028427-1.0379203-.42423882-1.59718-.38332h-4.0249l-.92638 1.05418-.86248-.99026h-6.06927v6.54845h5.94151l.95831-1.0222.89442 1.0222h3.67351v-1.5333h.35138c.5315631.03368063 1.0643687-.04243252 1.56524-.2236v1.7569h3.03465v-1.693h.15973c.19166 0 .19166 0 .19166.19166v1.50135h9.16783c.5404625.01244806 1.0729791-.13177657 1.53329-.41527v.41527h2.90687c.5668034.00896781 1.1302525-.08855463 1.66107-.2875v-1.24584zm-4.504-1.88468c.253211.26472978.3810909.62512761.35137.99025 0 1.0222-.63887 1.46941-1.7569 1.46941h-2.20416v-.99025h2.17217c.1603868.02191662.3226136-.02443595.44721-.12778.08563-.08376198.1320159-.19971944.12778-.31943-.0024011-.11846153-.0478192-.23200331-.12778-.31944-.1239818-.07707279-.2700523-.11078082-.41527-.09583-1.05414-.03195-2.36382.03194-2.36382-1.46941-.0068246-.40945807.1663884-.80128305.4738166-1.07182021.3074283-.27053717.7180959-.3925277 1.1233634-.33369979h2.236v.99025h-2.04434c-.22361 0-.35138 0-.44721.09583-.12778.06389-.15972.19167-.15972.35138-.0080645.16265372.0983243.30893777.25555.35138.1454745.04151794.2959295.06301247.44721.06389h.60696c.4610234-.01286987.9123542.1338165 1.27772.41527zm-10.12614-.28749c-.1689694.08056637-.3566599.11369046-.543.09583h-1.37363v-1.05414h1.37358c.1864465-.02084857.3749534.0124196.543.09583.1557142.07631777.2456074.24326.22361.41527.0289936.18158486-.0609444.36145687-.22361.44721zm.70276.575c.2123024.07638319.399948.20885127.543.38333.1600256.25736291.227627.56155313.19167.86247v.9264h-1.11806v-.57503c0-.28749.03194-.70276-.19166-.92636-.2363368-.18152905-.5350091-.26194193-.83054-.22361h-1.2138v1.725h-1.118v-4.66382h2.58743c.4588875-.03922247.9202667.03767233 1.34163.2236.3790674.21094051.6028671.62122957.575 1.05414.026656.52599833-.280288 1.01194752-.76672 1.21386zm1.40552-2.4916h3.73741v.99025h-2.61943v.86248h2.55549v.95831h-2.55549v.92636h2.61938v.99026h-3.73741zm-7.57064 2.17217h-1.46946v-1.18194h1.46941c.41527 0 .67082.15972.67082.575.03196.38331-.25555.60692-.67082.60692zm-2.58743 2.10828-1.725-1.91662 1.725-1.85273zm-4.44017-.575h-2.7472v-.92637h2.45966v-.9583h-2.45966v-.86248h2.811l1.2139 1.37361zm8.91228-2.17216c0 1.30968-.95831 1.56523-1.94857 1.56523h-1.40557v1.56524h-2.17216l-1.37358-1.56525-1.43746 1.56525h-4.44017v-4.66378h4.504l1.37358 1.5333 1.43746-1.5333h3.57769c.89447 0 1.88478.25555 1.88478 1.5333z" fill="#fff" fill-rule="evenodd"/></mask><g fill="none" fill-rule="evenodd"><path d="m.68016.79913h40.56987v26.41759h-40.56987z" fill="#246ea9" fill-rule="nonzero"/><path d="m-.63994-.85148h35.20188v9.74281h-35.20188z" fill="#fffffe" fill-rule="nonzero" mask="url(#a)" transform="translate(8 14)"/><g transform="translate(1 7)"><path d="m12.972 5.328h3.738v-.99h-2.62v-.927h2.556v-.958h-2.556v-.831h2.62v-.99h-3.738z"/><path d="m10.25718.63224-1.34161 3.19435-1.46941-3.19435h-1.82081v4.44016l-1.91662-4.44016h-1.66107l-2.01245 4.69576h1.21389l.44718-1.05415h2.33191l.44721 1.05415h2.268v-3.67358l1.62912 3.67358h.99026l1.62912-3.67358v3.67358h1.118v-4.69576zm-8.17756 2.6513.76664-1.88466.76664 1.88466z"/><path d="m22.01246 1.878c.0278293-.42456645-.1977074-.82550407-.575-1.02218-.4335258-.18281135-.9044358-.25946674-1.37356-.22359h-2.58744v4.63183h1.118v-1.69306h1.21386c.41526 0 .6708.032.83052.19167.22362.22359.19167.63885.19167.92635v.60698h1.118v-.92635c.0359609-.30091635-.0316293-.60510784-.19164-.86248-.1430613-.17449087-.3307264-.30696055-.54305-.38333.4967947-.21187032.8135275-.70595818.79864-1.24584zm-1.46946.67085c-.1689659.080578-.3566587.11370596-.543.09584h-1.3736v-1.05414h1.3736c.1864467-.02085427.3749552.01241418.543.09583.1557294.07629878.2456353.24324574.22363.41526.0157644.17931581-.0707102.35224568-.22363.44721z"/><path d="m32.26635.63224v4.47208l-1.88466-4.44016h-1.693l-1.59719 3.70548h-.51109c-.279855.02419872-.5572767-.06827636-.76664-.25555-.2417754-.31998988-.3556588-.71857997-.31943-1.118-.0276981-.37880832.0861222-.7544228.31943-1.05414.2292186-.22133206.5462942-.32703128.86247-.28751h1.05414v-.99028h-1.08609c-.6155051-.06429362-1.2297337.13272755-1.693.54305-.4430889.49822393-.6624771 1.15635586-.60696 1.82079-.0493382.65400698.1698032 1.29990237.60693 1.78886.4632.36208338 1.0420971.54369939 1.62912.5111h1.30969l.41525-1.05415h2.3l.44721 1.05415h2.3v-3.51382l2.1402 3.51381h1.62907v-4.69571h-1.15v3.25823l-1.9805-3.25823zm-3.51381 2.6513.76667-1.88466.76664 1.88466z"/></g><g fill="#fffffe" fill-rule="nonzero"><path d="m3.08 10.284h1.533l-.767-1.885z"/><path d="m35.98156 7.47249-.44721-.76664h-3.19435v.76664l-.4153-.76664h-4.31237c-.6506244-.03480978-1.2993578.09714055-1.88469.38334v-.38334h-2.97076v.38334c-.3634927-.28209338-.8189919-.41874956-1.27774-.38334h-10.89277l-.73472 1.693-.73465-1.693h-3.45v.76664l-.3833-.76664h-2.9388l-1.34161 3.09855v3.4499h1.91661l.44722-1.05414h.95831l.41526 1.05414h3.80131v-.7986l.35139.7986h1.94853l.31942-.7986v.7986h9.39145v-1.72495h.19167c.12776 0 .15971.032.15971.22359v1.50136h4.85542v-.4153c.5502336.2910794 1.1666652.4341758 1.78886.41526h2.04438l.44717-1.0541h.95831l.41526 1.05414h3.92907v-.99023l.60693.99023h3.16243v-6.54845h-3.13044zm-22.87164 4.85551h-1.118v-3.67358l-1.62914 3.67358h-.99026l-1.62912-3.67358v3.67358h-2.268l-.44721-1.0542h-2.33191l-.44718 1.0542h-1.21389l2.01245-4.69576h1.66107l1.91662 4.44016v-4.44016h1.82081l1.46941 3.19435 1.34161-3.19435h1.85274zm4.59987-3.70548h-2.61938v.83048h2.5555v.95831h-2.5555v.92635h2.61938v.99034h-3.7374v-4.69576h3.7374zm5.04712 1.88469c.1600107.2573722.2276009.5615636.19164.86248v.92631h-1.118v-.60693c0-.2875.032-.70276-.19167-.92635-.15972-.15971-.41526-.19167-.83052-.19167h-1.21388v1.693h-1.118v-4.63181h2.58743c.4691242-.03587674.9400342.04077865 1.37356.22359.3772926.19667593.6028293.59761355.575 1.02218.0148858.53986489-.3018279 1.03393987-.7986 1.24582.21232.076371.3999814.2088406.54304.38333zm2.04438 1.82079h-1.15v-4.69576h1.15zm12.17054-4.69576h1.15v4.69576h-1.62918l-2.1402-3.51381v3.51381h-2.3l-.44721-1.05415h-2.3l-.41517 1.05415h-1.30969c-.5870229.0325994-1.16592-.1490166-1.62912-.5111-.4371372-.4889675-.6562793-1.1348795-.60693-1.7889-.0555224-.66442649.1638545-1.32255371.60693-1.82078.4632745-.41030445 1.0775022-.60730717 1.693-.543h1.08606v.99026h-1.05411c-.3161758-.03952128-.6332514.06617794-.86247.28751-.2333078.2997172-.3471281.67533168-.31943 1.05414-.0362288.39942.0776546.7980101.31943 1.118.2093633.1872736.486785.2797487.76664.25555h.51109l1.59719-3.70548h1.693l1.88466 4.44016v-4.47212h1.72498l1.98053 3.25823z"/><path d="m21.543 8.68638c-.1680448-.08341582-.3565533-.11668427-.543-.09583h-1.3736v1.05414h1.3736c.1863413.01786596.3740341-.015262.543-.09584.1529198-.09496432.2393944-.26789419.22363-.44721.0220053-.17201426-.0679006-.33896122-.22363-.41526z"/><path d="m29.753 10.284h1.533l-.767-1.885z"/></g></g></svg>